# xmcd
#
# Track frame offsets: 
#        150
#        10492
#        21076
#        31534
#        45335
#        59569
#        70842
#        84797
#        97965
#        108367
#        121235
#        136409
#        154697
#        169788
#        187845
#        198742
#        210531
#        222389
#        235661
#        246308
#
# Disc length: 3456 seconds
#
# Revision: 0
# Processed by: cddbd v1.5.2PL0 Copyright (c) Steve Scherf et al.
# Submitted via: ExactAudioCopy v0.99pb3
#
DISCID=050d7e14
DTITLE=Tom T. Hall - Ol' T's in Town and A Soldier of Fortune [CD]
DYEAR=2017
DGENRE=Country
TTITLE0=The Last Country Song [from Ol T's in Town, '79]
TTITLE1=Old Habits Die Hard [from Ol T's in Town, '79]
TTITLE2=Jesus on the Radio (Daddy on the Phone) [from Ol T's in Town, 
TTITLE2='79]
TTITLE3=The Old Side of Town [from Ol T's in Town, '79]
TTITLE4=Greed Kills More People Than Whiskey [from Ol T's in Town, '79
TTITLE4=]
TTITLE5=You Show Me Your Heart (And I'll Show You Mine) [from Ol T's i
TTITLE5=n Town, '79]
TTITLE6=The Different Feeling [from Ol T's in Town, '79]
TTITLE7=Girl You Sure Know How to Say Goodbye [from Ol T's in Town, '7
TTITLE7=9]
TTITLE8=What Do You Mean When You Say Goodbye [from Ol T's in Town, '7
TTITLE8=9]
TTITLE9=I Left You Some Kisses on the Door [from Ol T's in Town, '79]
TTITLE10=Soldier of Fortune [from A Soldier of Fortune, '80]
TTITLE11=Me and Jimmie Rodgers [from A Soldier of Fortune, '80]
TTITLE12=We're All in This Thing Alone [from A Soldier of Fortune, '80
TTITLE12=]
TTITLE13=Back When Gas Was Thirty Cents a Gallon [from A Soldier of Fo
TTITLE13=rtune, '80]
TTITLE14=The World According to Raymond [from A Soldier of Fortune, '8
TTITLE14=0]
TTITLE15=I'll Go Somewhere and Sing My Songs Again [from A Soldier of 
TTITLE15=Fortune, '80]
TTITLE16=Texas Never Fell in Love With Me [from A Soldier of Fortune, 
TTITLE16='80]
TTITLE17=The Six O'Clock News [from A Soldier of Fortune, '80]
TTITLE18=People as Crazy as Me [from A Soldier of Fortune, '80]
TTITLE19=Whiskey Castles [from A Soldier of Fortune, '80]
EXTD=
EXTT0=
EXTT1=
EXTT2=
EXTT3=
EXTT4=
EXTT5=
EXTT6=
EXTT7=
EXTT8=
EXTT9=
EXTT10=
EXTT11=
EXTT12=
EXTT13=
EXTT14=
EXTT15=
EXTT16=
EXTT17=
EXTT18=
EXTT19=
PLAYORDER=
